<?xml version="1.0" encoding="UTF-8" standalone="no"?> <svg xmlns:inkscape="http://www.inkscape.org/namespaces/inkscape" xmlns:sodipodi="http://sodipodi.sourceforge.net/DTD/sodipodi-0.dtd" xmlns:xlink="http://www.w3.org/1999/xlink" xmlns="http://www.w3.org/2000/svg" xmlns:svg="http://www.w3.org/2000/svg" id="Layer_2" data-name="Layer 2" viewBox="0 0 760 580" version="1.1" width="760" height="580"><defs id="defs1"><linearGradient id="linearGradient29"><stop style="stop-color:#fcca22;stop-opacity:1;" offset="0" id="stop29"></stop><stop style="stop-color:#fc8722;stop-opacity:1;" offset="1" id="stop30"></stop></linearGradient><style id="style1">.cls-1{fill:#ee7601;}.cls-2{fill:#4d4848;}.cls-3{isolation:isolate;}.cls-4{fill:#4d4848;}</style><linearGradient id="linear-gradient-2" x1="-1442.75" y1="326.20001" x2="-1326.76" y2="326.20001" gradientTransform="translate(1579.1562,365.47373)" gradientUnits="userSpaceOnUse"><stop offset="0" stop-color="#fcca22" id="stop3"></stop><stop offset="1" stop-color="#fc8722" id="stop4"></stop></linearGradient><linearGradient xlink:href="#linearGradient29" id="linearGradient31" gradientUnits="userSpaceOnUse" x1="94.095383" y1="643.42627" x2="889.40253" y2="643.42627" gradientTransform="matrix(1.099862,0.21349073,-0.21349073,1.099862,30.540367,-220.95857)"></linearGradient><linearGradient xlink:href="#linearGradient29" id="linearGradient32" gradientUnits="userSpaceOnUse" x1="94.095383" y1="643.42627" x2="889.40253" y2="643.42627"></linearGradient><linearGradient xlink:href="#linearGradient29" id="linearGradient33" gradientUnits="userSpaceOnUse" x1="94.095383" y1="643.42627" x2="889.40253" y2="643.42627"></linearGradient><linearGradient xlink:href="#linearGradient29" id="linearGradient34" gradientUnits="userSpaceOnUse" x1="94.095383" y1="643.42627" x2="889.40253" y2="643.42627"></linearGradient><linearGradient xlink:href="#linearGradient29" id="linearGradient35" gradientUnits="userSpaceOnUse" x1="94.095383" y1="643.42627" x2="889.40253" y2="643.42627"></linearGradient></defs><path class="cls-1" d="m 716.9,0 a 43,43 0 0 0 -37.8,63.55 c -4.28,2.13 -14.25,7.14 -28.22,14.39 a 32.000953,32.000953 0 1 0 -57.62,27.86 c 0.39,0.79 0.8,1.57 1.25,2.33 -7.18,4 -14.64,8.12 -22.29,12.45 a 25.14,25.14 0 0 0 -43.42,25.2 q -11.88,7.08 -23.87,14.49 A 18.34,18.34 0 0 0 475.33,179 c -32.16,20.9 -62.93,42.8 -87.85,64.07 -29.06,-65 -71.92,-136.31 -131.56,-194.39 l -0.17,-0.17 c -7,-6.88 -12.76,-3.84 -4.74,4.72 l 0.31,0.33 c 50.62,54.47 90.39,133.3 117.49,205.19 -102.81,87.79 -216.15,257.89 -91.93,311.34 18.09,7.79 26.33,-7.09 18.55,-11.67 -1.4,-0.83 -56.72,-30.73 -21.55,-122.61 h 88.52 a 8.5900669,8.5900669 0 1 0 0.59,-17.17 h -81.78 a 348.21,348.21 0 0 1 17.52,-32.51 h 63.67 a 8.59,8.59 0 0 0 0,-17.17 h -52.72 c 6.57,-9.84 13.95,-20.13 22.23,-30.91 h 30.49 a 8.59,8.59 0 0 0 0,-17.17 h -16.86 q 14.41,-17.62 32,-36.86 l 0.3,-0.34 c 23.35,67.6 34.62,125.25 32.15,144.48 -1.35,10.46 -8.1,14.84 -10.82,16.12 -4.34,2.06 -6.13,8.07 0.69,10.08 21.75,6.41 35.14,-15.18 37.55,-32.51 2.43,-17.48 -9.47,-81.47 -40.87,-157.75 C 422.75,238 453,213.05 483.9,190.2 a 18.36,18.36 0 0 0 27.19,-19.52 q 12.3,-8.58 24.45,-16.65 a 25.1,25.1 0 0 0 40.05,-25.71 c 8.06,-5 15.88,-9.76 23.39,-14.26 A 32,32 0 0 0 652.84,83 c 13.67,-7.61 23.64,-13 28.51,-15.77 A 43,43 0 1 0 716.9,0 Z" id="path1"></path><path class="cls-2" d="m 227.5,344.28 c 1.59,-3.48 2.94,-7.23 4.55,-11.79 a 115.44,115.44 0 0 0 4.55,-15.8 L 253,246 c 1.33,-7.23 2.39,-12.59 2.68,-15.8 a 41,41 0 0 0 0.53,-8.57 v -3.22 h 37 L 271,316.73 q -2.42,10.45 -3.21,16.07 a 57,57 0 0 0 -0.81,11.52 z" id="path2"></path><path class="cls-2" d="M 135.29,344.28 H 25.72 c -11,0 -18.48,-2.41 -22.51,-7.5 C 1.08,333.84 0,329.83 0,324.78 a 56.79,56.79 0 0 1 1.87,-13.67 l 13.67,-59.47 c 2.94,-12 7.22,-20.63 13.12,-25.73 6.16,-5.08 14.47,-7.49 25.73,-7.49 h 80.9 c 11.52,0 19,2.41 22.76,7.49 2.41,3 3.5,7 3.5,12.34 a 51.78,51.78 0 0 1 -1.89,13.39 L 150.82,291 H 40.72 l -5.9,25.71 a 35.57,35.57 0 0 0 -0.8,6.17 c 0,1.33 0,2.4 0.55,2.93 0.78,1.62 3.2,2.42 7,2.42 h 80.35 a 97.26,97.26 0 0 0 20.91,-2.13 z M 126.71,246 a 21.24,21.24 0 0 0 1.08,-6.42 8,8 0 0 0 -0.54,-2.69 c -1.08,-1.6 -3.74,-2.4 -7.5,-2.4 H 63 c -3.74,0 -6.43,0.8 -8,2.4 -1.87,1.62 -3.2,4.57 -3.74,9.11 l -6.7,28.93 H 120 Z" id="path3"></path><path class="cls-2" d="m 162.6,344.28 c 1.7,-3.89 3.12,-8.1 4.83,-13.21 a 134.26,134.26 0 0 0 4.83,-17.73 L 200.4,183 c 1.7,-8.12 2.83,-14.13 3.4,-17.72 0.29,-3.31 0.58,-7.81 0.58,-13.22 h 39.21 l -35,161.27 q -2.55,11.71 -3.42,18 a 68.07,68.07 0 0 0 -0.84,12.91 z" id="path4"></path><path class="cls-2" d="m 441.25,344.28 c 1.6,-3.48 2.93,-7.23 4.54,-11.79 a 111.38,111.38 0 0 0 4.56,-15.8 L 466.7,246 c 1.33,-7.23 2.4,-12.59 2.66,-15.8 a 39.68,39.68 0 0 0 0.55,-8.57 v -3.22 h 37 l -22.23,98.32 q -2.4,10.45 -3.21,16.07 a 57,57 0 0 0 -0.81,11.52 z" id="path5"></path><path class="cls-2" d="m 614.6,239.54 c -4,-0.28 -8,-0.54 -12.6,-0.54 h -18 c -3.46,0 -6.41,0.8 -8,2.14 -2.15,1.61 -3.49,4.29 -4.56,8.3 l -15,67.25 c -2.68,10.45 -3.75,18.49 -3.75,24.65 v 2.94 h -39.08 c 1.6,-4 3.21,-7.78 4.28,-11.52 1.07,-3.48 2.42,-8.84 4.29,-16.07 L 538.24,246 c 1.88,-7 2.69,-12.32 3.5,-16.33 a 78.5,78.5 0 0 0 0.54,-11.26 h 32.94 l -1.34,12.86 a 22.79,22.79 0 0 1 8.31,-9.64 c 3.48,-2.14 8,-3.22 14.19,-3.22 h 32.16 l 7.75,13.92 a 30.24,30.24 0 0 0 -4.55,5.1 c -1.87,2.41 -3.2,3.48 -4,3.48 -4.83,-0.57 -9.14,-1.11 -13.14,-1.37 z" id="path6"></path><path class="cls-2" d="M 299.33,174.34 A 18.14,18.14 0 1 1 281.19,156.2 v 0 a 18.13,18.13 0 0 1 18.13,18.13 z" id="path7"></path><g class="cls-3" id="g12" transform="translate(16,2)"><path class="cls-4" d="m 414.53,513.92 -2.59,10.18 h -26.21 q -4.61,0 -5.57,3.84 l -8.35,33.4 a 5.59,5.59 0 0 0 -0.19,1.35 q 0,2.49 3.84,2.49 h 26.21 l -2.5,10.18 H 360.1 q -11.81,0 -11.81,-10.56 a 27.76,27.76 0 0 1 0.86,-6.43 L 356,530.91 q 4.23,-17 19.49,-17 z" id="path8"></path><path class="cls-4" d="m 488.93,513.92 -44.54,51.26 h 27.74 l -2.5,10.18 h -60.86 l 44.35,-51.26 h -27.36 l 2.59,-10.18 z" id="path9"></path><path class="cls-4" d="m 553.15,513.92 -2.59,10.18 H 520.8 l -3.55,14.4 h 27.26 l -2.59,10.17 h -27.26 l -4.13,16.51 h 29.76 l -2.5,10.18 H 484.61 L 500,513.92 Z" id="path10"></path><path class="cls-4" d="m 619.49,513.92 -2.59,10.18 h -26.21 q -4.61,0 -5.57,3.84 l -8.35,33.4 a 5.59,5.59 0 0 0 -0.19,1.35 q 0,2.49 3.84,2.49 h 26.2 l -2.49,10.18 h -39.07 q -11.82,0 -11.81,-10.56 a 27.76,27.76 0 0 1 0.86,-6.43 l 6.82,-27.46 q 4.22,-17 19.49,-17 z" id="path11"></path><path class="cls-4" d="m 696.77,513.92 -15.36,61.44 H 658 l 6.63,-26.69 h -17.49 l -6.63,26.69 h -23.42 l 15.36,-61.44 h 23.42 l -6.14,24.58 h 17.47 l 6.14,-24.58 z" id="path12"></path></g></svg> 